<svg id="visual" viewBox="0 0 1920 1090" width="1920" height="1090" xmlns="http://www.w3.org/2000/svg" xmlns:xlink="http://www.w3.org/1999/xlink" version="1.1"><rect x="0" y="0" width="1920" height="1090" fill="#001220"></rect><defs><linearGradient id="grad1_0" x1="43.2%" y1="0%" x2="100%" y2="100%"><stop offset="14.77064220183486%" stop-color="#001220" stop-opacity="1"></stop><stop offset="85.22935779816515%" stop-color="#001220" stop-opacity="1"></stop></linearGradient></defs><defs><linearGradient id="grad2_0" x1="0%" y1="0%" x2="56.8%" y2="100%"><stop offset="14.77064220183486%" stop-color="#001220" stop-opacity="1"></stop><stop offset="85.22935779816515%" stop-color="#001220" stop-opacity="1"></stop></linearGradient></defs><g transform="translate(1920, 0)"><path d="M0 981C-130.4 968.8 -260.8 956.6 -375.4 906.3C-490 856.1 -588.9 767.8 -672.5 672.5C-756 577.2 -824.2 474.9 -873.1 361.6C-921.9 248.4 -951.5 124.2 -981 0L0 0Z" fill="#FBAE3C"></path></g><g transform="translate(0, 1090)"><path d="M0 -981C129.2 -953.6 258.4 -926.2 357.8 -863.8C457.2 -801.5 526.7 -704.2 623 -623C719.2 -541.7 842.2 -476.6 906.3 -375.4C970.5 -274.3 975.7 -137.1 981 0L0 0Z" fill="#FBAE3C"></path></g></svg>